<svg width="49" height="50" viewBox="0 0 49 50" fill="none" xmlns="http://www.w3.org/2000/svg">
<g id="ph:eye-bold">
<path id="Vector" d="M48.043 25.9321C47.9721 26.0872 46.2954 29.81 42.5917 33.5138C37.6362 38.4616 31.3906 41.0781 24.5 41.0781C17.6094 41.0781 11.3638 38.4616 6.41401 33.5138C2.7103 29.81 1.03358 26.0872 0.95702 25.9321C0.827348 25.6382 0.760376 25.3204 0.760376 24.999C0.760376 24.6777 0.827348 24.3599 0.95702 24.0659C1.02784 23.909 2.70456 20.188 6.41018 16.4843C11.3638 11.5365 17.6094 8.92188 24.5 8.92188C31.3906 8.92188 37.6362 11.5365 42.584 16.4843C46.2897 20.188 47.9664 23.909 48.0372 24.0659C48.1678 24.3595 48.2357 24.6771 48.2367 24.9984C48.2377 25.3198 48.1717 25.6378 48.043 25.9321ZM39.2268 19.6157C35.1173 15.5694 30.1637 13.5156 24.5 13.5156C18.8363 13.5156 13.8827 15.5694 9.77893 19.6177C8.16413 21.2155 6.77508 23.0263 5.6503 25C6.77541 26.9729 8.16443 28.7831 9.77893 30.3804C13.8846 34.4306 18.8363 36.4844 24.5 36.4844C30.1637 36.4844 35.1154 34.4306 39.221 30.3804C40.8357 28.7832 42.2247 26.973 43.3497 25C42.2247 23.0264 40.8357 21.2156 39.221 19.6177L39.2268 19.6157ZM24.5 33.4219C22.8343 33.4219 21.206 32.9279 19.821 32.0025C18.4361 31.0771 17.3566 29.7618 16.7192 28.2229C16.0818 26.684 15.915 24.9907 16.2399 23.357C16.5649 21.7233 17.367 20.2227 18.5448 19.0448C19.7226 17.867 21.2233 17.0649 22.857 16.7399C24.4906 16.415 26.184 16.5818 27.7229 17.2192C29.2618 17.8566 30.5771 18.9361 31.5025 20.3211C32.4279 21.706 32.9219 23.3343 32.9219 25C32.9193 27.2328 32.0312 29.3735 30.4524 30.9524C28.8735 32.5312 26.7328 33.4193 24.5 33.4219ZM24.5 21.1719C23.7429 21.1719 23.0027 21.3964 22.3732 21.817C21.7437 22.2377 21.253 22.8355 20.9633 23.535C20.6735 24.2345 20.5977 25.0042 20.7454 25.7468C20.8931 26.4894 21.2577 27.1715 21.7931 27.7069C22.3285 28.2423 23.0106 28.6069 23.7532 28.7546C24.4957 28.9023 25.2654 28.8265 25.9649 28.5367C26.6644 28.247 27.2623 27.7563 27.683 27.1268C28.1036 26.4973 28.3281 25.7571 28.3281 25C28.3281 23.9847 27.9248 23.011 27.2069 22.2931C26.489 21.5752 25.5153 21.1719 24.5 21.1719Z" fill="#292929"/>
</g>
</svg>
