<svg width="49" height="49" viewBox="0 0 49 49" fill="none" xmlns="http://www.w3.org/2000/svg">
<g id="ph:eye-closed-bold">
<path id="Vector" d="M44.8694 31.0078C45.0202 31.2698 45.118 31.5588 45.1571 31.8585C45.1962 32.1582 45.1759 32.4627 45.0973 32.7545C45.0187 33.0463 44.8835 33.3199 44.6992 33.5594C44.5149 33.799 44.2853 33.9999 44.0234 34.1507C43.7615 34.3015 43.4724 34.3993 43.1727 34.4384C42.873 34.4775 42.5686 34.4572 42.2767 34.3786C41.9849 34.3001 41.7114 34.1648 41.4718 33.9805C41.2322 33.7963 41.0313 33.5666 40.8805 33.3047L37.6534 27.6582C35.8527 28.791 33.9112 29.6829 31.8787 30.3111L32.8912 36.3672C32.9908 36.968 32.8477 37.5837 32.4935 38.079C32.1392 38.5744 31.6027 38.9087 31.002 39.0086C30.8756 39.0309 30.7475 39.0418 30.6192 39.0412C30.0768 39.0406 29.5521 38.8481 29.138 38.4978C28.7239 38.1475 28.4472 37.6619 28.3568 37.1271L27.371 31.2318C25.459 31.4436 23.5294 31.4436 21.6174 31.2318L20.6412 37.1328C20.5507 37.6683 20.2734 38.1544 19.8585 38.5048C19.4436 38.8552 18.918 39.0473 18.375 39.0469C18.2466 39.0475 18.1185 39.0366 17.9921 39.0144C17.6946 38.9643 17.4099 38.856 17.1542 38.6959C16.8986 38.5357 16.677 38.3268 16.5021 38.0809C16.3272 37.8351 16.2024 37.5573 16.1349 37.2632C16.0674 36.9692 16.0585 36.6647 16.1087 36.3672L17.1212 30.2958C15.0887 29.6676 13.1472 28.7757 11.3465 27.6429L8.11941 33.3047C7.96859 33.5666 7.76767 33.7963 7.5281 33.9805C7.28853 34.1648 7.01502 34.3001 6.72318 34.3786C6.43133 34.4572 6.12687 34.4775 5.82718 34.4384C5.52749 34.3993 5.23843 34.3015 4.97652 34.1507C4.7146 33.9999 4.48496 33.799 4.30069 33.5594C4.11643 33.3199 3.98115 33.0463 3.90259 32.7545C3.82403 32.4627 3.80373 32.1582 3.84283 31.8585C3.88194 31.5588 3.97969 31.2698 4.1305 31.0078L7.6562 24.8541C6.46123 23.775 5.35337 22.6031 4.34296 21.3495C3.98626 20.8737 3.82796 20.2782 3.90135 19.6881C3.97475 19.098 4.27412 18.5594 4.73649 18.1856C5.19887 17.8117 5.78822 17.6317 6.38058 17.6835C6.97294 17.7352 7.52215 18.0147 7.91269 18.4631C10.9828 22.2644 16.3537 26.7969 24.5 26.7969C32.6462 26.7969 38.0171 22.2644 41.0872 18.4631C41.4714 17.9937 42.0257 17.6954 42.6291 17.6332C43.2324 17.571 43.8359 17.75 44.3078 18.1312C44.7796 18.5123 45.0816 19.0646 45.1477 19.6675C45.2139 20.2705 45.0388 20.8751 44.6608 21.3495C43.6491 22.6033 42.54 23.7751 41.3437 24.8541L44.8694 31.0078Z" fill="#292929"/>
</g>
</svg>
