<svg width="29" height="29" viewBox="0 0 29 29" fill="none" xmlns="http://www.w3.org/2000/svg">
<g id="fluent:board-split-16-regular">
<path id="Vector" d="M3.625 8.15625C3.625 6.95449 4.1024 5.80195 4.95217 4.95217C5.80195 4.1024 6.95449 3.625 8.15625 3.625H20.8438C22.0455 3.625 23.1981 4.1024 24.0478 4.95217C24.8976 5.80195 25.375 6.95449 25.375 8.15625V20.8438C25.375 22.0455 24.8976 23.1981 24.0478 24.0478C23.1981 24.8976 22.0455 25.375 20.8438 25.375H8.15625C6.95449 25.375 5.80195 24.8976 4.95217 24.0478C4.1024 23.1981 3.625 22.0455 3.625 20.8438V8.15625ZM8.15625 5.4375C7.43519 5.4375 6.74367 5.72394 6.2338 6.2338C5.72394 6.74367 5.4375 7.43519 5.4375 8.15625V12.6875H16.3125V5.4375H8.15625ZM5.4375 14.5V20.8438C5.4375 21.5648 5.72394 22.2563 6.2338 22.7662C6.74367 23.2761 7.43519 23.5625 8.15625 23.5625H16.3125V14.5H5.4375ZM18.125 16.3125H23.5625V12.6875H18.125V16.3125ZM23.5625 18.125H18.125V23.5625H20.8438C21.5648 23.5625 22.2563 23.2761 22.7662 22.7662C23.2761 22.2563 23.5625 21.5648 23.5625 20.8438V18.125ZM23.5625 8.15625C23.5625 7.43519 23.2761 6.74367 22.7662 6.2338C22.2563 5.72394 21.5648 5.4375 20.8438 5.4375H18.125V10.875H23.5625V8.15625Z" fill="#D9D9D9"/>
</g>
</svg>
