<svg width="29" height="30" viewBox="0 0 29 30" fill="none" xmlns="http://www.w3.org/2000/svg">
<g id="ph:table-bold">
<path id="Vector" d="M25.375 5.48438H3.625C3.26447 5.48438 2.91871 5.62759 2.66378 5.88253C2.40884 6.13746 2.26562 6.48322 2.26562 6.84375V22.25C2.26562 22.8509 2.50432 23.4272 2.92921 23.852C3.3541 24.2769 3.93037 24.5156 4.53125 24.5156H24.4688C25.0696 24.5156 25.6459 24.2769 26.0708 23.852C26.4957 23.4272 26.7344 22.8509 26.7344 22.25V6.84375C26.7344 6.48322 26.5912 6.13746 26.3362 5.88253C26.0813 5.62759 25.7355 5.48438 25.375 5.48438ZM4.98438 13.6406H8.60938V16.3594H4.98438V13.6406ZM11.3281 13.6406H24.0156V16.3594H11.3281V13.6406ZM24.0156 8.20312V10.9219H4.98438V8.20312H24.0156ZM4.98438 19.0781H8.60938V21.7969H4.98438V19.0781ZM11.3281 21.7969V19.0781H24.0156V21.7969H11.3281Z" fill="#D9D9D9"/>
</g>
</svg>
