<svg width="24" height="24" viewBox="0 0 24 24" fill="none" xmlns="http://www.w3.org/2000/svg">
<g id="ph:x-bold">
<path id="Vector" d="M20.8408 18.9768C21.0884 19.2244 21.2275 19.5602 21.2275 19.9104C21.2275 20.2606 21.0884 20.5965 20.8408 20.8441C20.5932 21.0917 20.2573 21.2308 19.9071 21.2308C19.5569 21.2308 19.2211 21.0917 18.9735 20.8441L11.9995 13.8679L5.02336 20.8419C4.77574 21.0895 4.43989 21.2286 4.08969 21.2286C3.7395 21.2286 3.40365 21.0895 3.15603 20.8419C2.9084 20.5943 2.76929 20.2584 2.76929 19.9082C2.76929 19.558 2.9084 19.2222 3.15603 18.9746L10.1322 12.0006L3.15822 5.02446C2.9106 4.77683 2.77148 4.44098 2.77148 4.09079C2.77148 3.7406 2.9106 3.40475 3.15822 3.15712C3.40585 2.9095 3.7417 2.77039 4.09189 2.77039C4.44208 2.77039 4.77793 2.9095 5.02556 3.15712L11.9995 10.1333L18.9757 3.15602C19.2233 2.9084 19.5591 2.76929 19.9093 2.76929C20.2595 2.76929 20.5954 2.9084 20.843 3.15602C21.0906 3.40365 21.2297 3.7395 21.2297 4.08969C21.2297 4.43989 21.0906 4.77574 20.843 5.02336L13.8668 12.0006L20.8408 18.9768Z" fill="#292929"/>
</g>
</svg>
