<svg width="10" height="16" viewBox="0 0 10 16" fill="none" xmlns="http://www.w3.org/2000/svg">
<path fill-rule="evenodd" clip-rule="evenodd" d="M0.939901 9.0599C0.659 8.77865 0.501221 8.3974 0.501221 7.9999C0.501221 7.6024 0.659 7.22115 0.939901 6.9399L6.5959 1.2819C6.8773 1.00064 7.2589 0.84268 7.65675 0.842773C7.85375 0.84282 8.04882 0.881668 8.2308 0.957099C8.41279 1.03253 8.57813 1.14307 8.7174 1.2824C8.85667 1.42173 8.96713 1.58713 9.04247 1.76915C9.11782 1.95117 9.15658 2.14625 9.15653 2.34325C9.15648 2.54025 9.11763 2.73531 9.0422 2.9173C8.96677 3.09929 8.85623 3.26463 8.7169 3.4039L4.1219 7.9999L8.7179 12.5959C8.86123 12.7342 8.97558 12.8997 9.05428 13.0826C9.13298 13.2656 9.17445 13.4624 9.17627 13.6616C9.1781 13.8607 9.14024 14.0583 9.0649 14.2427C8.98957 14.427 8.87827 14.5946 8.7375 14.7355C8.59672 14.8764 8.4293 14.9878 8.24499 15.0633C8.06068 15.1389 7.86318 15.1769 7.66401 15.1753C7.46484 15.1736 7.26799 15.1323 7.08495 15.0538C6.90191 14.9753 6.73634 14.8611 6.5979 14.7179L0.937901 9.0599H0.939901Z" fill="#D9D9D9"/>
</svg>
