<svg width="29" height="30" viewBox="0 0 29 30" fill="none" xmlns="http://www.w3.org/2000/svg">
<g id="solar:calendar-linear">
<g id="Group">
<path id="Vector" d="M2.41663 15C2.41663 10.4434 2.41663 8.1645 3.83279 6.74954C5.24775 5.33337 7.52667 5.33337 12.0833 5.33337H16.9166C21.4732 5.33337 23.7522 5.33337 25.1671 6.74954C26.5833 8.1645 26.5833 10.4434 26.5833 15V17.4167C26.5833 21.9733 26.5833 24.2522 25.1671 25.6672C23.7522 27.0834 21.4732 27.0834 16.9166 27.0834H12.0833C7.52667 27.0834 5.24775 27.0834 3.83279 25.6672C2.41663 24.2522 2.41663 21.9733 2.41663 17.4167V15Z" stroke="#D9D9D9" stroke-width="2"/>
<path id="Vector_2" d="M8.45825 5.33337V3.52087M20.5416 5.33337V3.52087M3.02075 11.375H25.9791" stroke="#D9D9D9" stroke-width="2" stroke-linecap="round"/>
<path id="Vector_3" d="M21.75 21.0417C21.75 21.3621 21.6227 21.6695 21.3961 21.8961C21.1695 22.1227 20.8621 22.25 20.5417 22.25C20.2212 22.25 19.9139 22.1227 19.6872 21.8961C19.4606 21.6695 19.3333 21.3621 19.3333 21.0417C19.3333 20.7212 19.4606 20.4139 19.6872 20.1872C19.9139 19.9606 20.2212 19.8333 20.5417 19.8333C20.8621 19.8333 21.1695 19.9606 21.3961 20.1872C21.6227 20.4139 21.75 20.7212 21.75 21.0417ZM21.75 16.2083C21.75 16.5288 21.6227 16.8361 21.3961 17.0628C21.1695 17.2894 20.8621 17.4167 20.5417 17.4167C20.2212 17.4167 19.9139 17.2894 19.6872 17.0628C19.4606 16.8361 19.3333 16.5288 19.3333 16.2083C19.3333 15.8879 19.4606 15.5805 19.6872 15.3539C19.9139 15.1273 20.2212 15 20.5417 15C20.8621 15 21.1695 15.1273 21.3961 15.3539C21.6227 15.5805 21.75 15.8879 21.75 16.2083ZM15.7083 21.0417C15.7083 21.3621 15.581 21.6695 15.3544 21.8961C15.1278 22.1227 14.8205 22.25 14.5 22.25C14.1795 22.25 13.8722 22.1227 13.6456 21.8961C13.419 21.6695 13.2917 21.3621 13.2917 21.0417C13.2917 20.7212 13.419 20.4139 13.6456 20.1872C13.8722 19.9606 14.1795 19.8333 14.5 19.8333C14.8205 19.8333 15.1278 19.9606 15.3544 20.1872C15.581 20.4139 15.7083 20.7212 15.7083 21.0417ZM15.7083 16.2083C15.7083 16.5288 15.581 16.8361 15.3544 17.0628C15.1278 17.2894 14.8205 17.4167 14.5 17.4167C14.1795 17.4167 13.8722 17.2894 13.6456 17.0628C13.419 16.8361 13.2917 16.5288 13.2917 16.2083C13.2917 15.8879 13.419 15.5805 13.6456 15.3539C13.8722 15.1273 14.1795 15 14.5 15C14.8205 15 15.1278 15.1273 15.3544 15.3539C15.581 15.5805 15.7083 15.8879 15.7083 16.2083ZM9.66667 21.0417C9.66667 21.3621 9.53936 21.6695 9.31275 21.8961C9.08615 22.1227 8.7788 22.25 8.45833 22.25C8.13786 22.25 7.83052 22.1227 7.60391 21.8961C7.37731 21.6695 7.25 21.3621 7.25 21.0417C7.25 20.7212 7.37731 20.4139 7.60391 20.1872C7.83052 19.9606 8.13786 19.8333 8.45833 19.8333C8.7788 19.8333 9.08615 19.9606 9.31275 20.1872C9.53936 20.4139 9.66667 20.7212 9.66667 21.0417ZM9.66667 16.2083C9.66667 16.5288 9.53936 16.8361 9.31275 17.0628C9.08615 17.2894 8.7788 17.4167 8.45833 17.4167C8.13786 17.4167 7.83052 17.2894 7.60391 17.0628C7.37731 16.8361 7.25 16.5288 7.25 16.2083C7.25 15.8879 7.37731 15.5805 7.60391 15.3539C7.83052 15.1273 8.13786 15 8.45833 15C8.7788 15 9.08615 15.1273 9.31275 15.3539C9.53936 15.5805 9.66667 15.8879 9.66667 16.2083Z" fill="#D9D9D9"/>
</g>
</g>
</svg>
