<svg width="35" height="35" viewBox="0 0 35 35" fill="none" xmlns="http://www.w3.org/2000/svg">
<g id="tdesign:member">
<path id="Vector" d="M8.02083 10.2084C8.02083 9.63388 8.134 9.06497 8.35386 8.53417C8.57373 8.00338 8.89599 7.52108 9.30224 7.11482C9.7085 6.70857 10.1908 6.38631 10.7216 6.16644C11.2524 5.94658 11.8213 5.83341 12.3958 5.83341C12.9704 5.83341 13.5393 5.94658 14.0701 6.16644C14.6009 6.38631 15.0832 6.70857 15.4894 7.11482C15.8957 7.52108 16.2179 8.00338 16.4378 8.53417C16.6577 9.06497 16.7708 9.63388 16.7708 10.2084C16.7708 11.3687 16.3099 12.4815 15.4894 13.302C14.669 14.1225 13.5562 14.5834 12.3958 14.5834C11.2355 14.5834 10.1227 14.1225 9.30224 13.302C8.48177 12.4815 8.02083 11.3687 8.02083 10.2084ZM12.3958 2.91675C10.462 2.91675 8.6073 3.68498 7.23985 5.05243C5.87239 6.41988 5.10417 8.27454 5.10417 10.2084C5.10417 12.1423 5.87239 13.9969 7.23985 15.3644C8.6073 16.7319 10.462 17.5001 12.3958 17.5001C14.3297 17.5001 16.1844 16.7319 17.5518 15.3644C18.9193 13.9969 19.6875 12.1423 19.6875 10.2084C19.6875 8.27454 18.9193 6.41988 17.5518 5.05243C16.1844 3.68498 14.3297 2.91675 12.3958 2.91675ZM22.6042 2.91675H21.1458V5.83341H22.6042C23.1787 5.83341 23.7476 5.94658 24.2784 6.16644C24.8092 6.38631 25.2915 6.70857 25.6978 7.11482C26.104 7.52108 26.4263 8.00338 26.6461 8.53417C26.866 9.06497 26.9792 9.63388 26.9792 10.2084C26.9792 10.7829 26.866 11.3519 26.6461 11.8827C26.4263 12.4135 26.104 12.8958 25.6978 13.302C25.2915 13.7083 24.8092 14.0305 24.2784 14.2504C23.7476 14.4703 23.1787 14.5834 22.6042 14.5834H21.1458V17.5001H22.6042C24.538 17.5001 26.3927 16.7319 27.7602 15.3644C29.1276 13.9969 29.8958 12.1423 29.8958 10.2084C29.8958 8.27454 29.1276 6.41988 27.7602 5.05243C26.3927 3.68498 24.538 2.91675 22.6042 2.91675ZM0 27.7084C0 25.7745 0.768227 23.9199 2.13568 22.5524C3.50313 21.185 5.3578 20.4167 7.29167 20.4167H17.5C19.4339 20.4167 21.2885 21.185 22.656 22.5524C24.0234 23.9199 24.7917 25.7745 24.7917 27.7084V30.6251H21.875V27.7084C21.875 26.5481 21.4141 25.4353 20.5936 24.6148C19.7731 23.7944 18.6603 23.3334 17.5 23.3334H7.29167C6.13134 23.3334 5.01855 23.7944 4.19807 24.6148C3.3776 25.4353 2.91667 26.5481 2.91667 27.7084V30.6251H0V27.7084ZM35 27.7084C35 26.7509 34.8114 25.8027 34.445 24.918C34.0785 24.0333 33.5414 23.2295 32.8643 22.5524C32.1872 21.8753 31.3834 21.3382 30.4987 20.9718C29.6141 20.6054 28.6659 20.4167 27.7083 20.4167H26.25V23.3334H27.7083C28.8687 23.3334 29.9815 23.7944 30.8019 24.6148C31.6224 25.4353 32.0833 26.5481 32.0833 27.7084V30.6251H35V27.7084Z" fill="white"/>
</g>
</svg>
